Coordinates
version=1
nRows=65
nColumns=12
inDegrees=yes

Units are S.I. units (second, meters, Newtons, ...)
Angles are in degrees

endheader
time	SC_y	SC_z	SC_x	AC_y	AC_z	AC_x	GH_y	GH_z	GH_yy	EL_x	PS_y
       0.0              -48.68          12.75          21.36          40.43         -16.85          18.39         -96.82          55.04          61.82          32.79          48.95
   0.02935              -48.68          12.75          21.36          40.44         -16.85          18.38         -96.83          55.04          61.82           32.8          48.95
   0.05871              -48.68          12.75          21.37          40.44         -16.85          18.38         -96.83          55.03          61.82           32.8          48.95
   0.08806              -48.67          12.75          21.37          40.44         -16.85          18.37         -96.84          55.03          61.81           32.8          48.95
    0.1174              -48.67          12.75          21.37          40.45         -16.85          18.37         -96.85          55.02          61.81           32.8          48.95
    0.1468              -48.66          12.75          21.38          40.45         -16.85          18.37         -96.87          55.02           61.8          32.81          48.95
    0.1761              -48.66          12.75          21.38          40.45         -16.85          18.36         -96.88          55.01           61.8          32.81          48.95
    0.2055              -48.65          12.75          21.38          40.46         -16.85          18.36         -96.89           55.0           61.8          32.81          48.95
    0.2348              -48.65          12.75          21.39          40.46         -16.85          18.35          -96.9           55.0          61.79          32.81          48.95
    0.2642              -48.64          12.75          21.39          40.47         -16.85          18.34         -96.92          54.99          61.79          32.82          48.95
    0.2935              -48.64          12.75           21.4          40.47         -16.85          18.34         -96.93          54.98          61.78          32.82          48.95
    0.3229              -48.63          12.75           21.4          40.48         -16.85          18.33         -96.95          54.98          61.77          32.83          48.95
    0.3523              -48.62          12.75          21.41          40.48         -16.85          18.32         -96.97          54.97          61.77          32.83          48.95
    0.3816              -48.62          12.76          21.41          40.49         -16.85          18.32         -96.99          54.96          61.76          32.84          48.95
     0.411              -48.61          12.76          21.42           40.5         -16.85          18.31         -97.01          54.95          61.75          32.84          48.95
    0.4403               -48.6          12.76          21.43          40.51         -16.86           18.3         -97.03          54.94          61.74          32.85          48.95
    0.4697              -48.59          12.76          21.44          40.51         -16.86          18.29         -97.05          54.92          61.73          32.85          48.95
     0.499              -48.58          12.76          21.44          40.52         -16.86          18.28         -97.08          54.91          61.72          32.86          48.95
    0.5284              -48.57          12.76          21.45          40.53         -16.86          18.26         -97.11           54.9          61.71          32.87          48.95
    0.5577              -48.56          12.76          21.46          40.54         -16.86          18.25         -97.14          54.88           61.7          32.88          48.95
    0.5871              -48.54          12.77          21.48          40.55         -16.86          18.24         -97.18          54.86          61.69          32.88          48.95
    0.6164              -48.53          12.77          21.49          40.57         -16.86          18.22         -97.21          54.85          61.67          32.89          48.94
    0.6458              -48.51          12.77           21.5          40.58         -16.87           18.2         -97.26          54.82          61.66           32.9          48.94
    0.6752              -48.49          12.77          21.52           40.6         -16.87          18.18          -97.3           54.8          61.64          32.92          48.94
    0.7045              -48.47          12.78          21.53          40.62         -16.87          18.16         -97.36          54.78          61.62          32.93          48.94
    0.7339              -48.45          12.78          21.55          40.64         -16.87          18.14         -97.42          54.75           61.6          32.95          48.94
    0.7632              -48.43          12.78          21.57          40.66         -16.88          18.11         -97.48          54.72          61.57          32.96          48.94
    0.7926               -48.4          12.79           21.6          40.68         -16.88          18.08         -97.55          54.68          61.55          32.98          48.94
    0.8219              -48.36          12.79          21.62          40.71         -16.88          18.04         -97.64          54.64          61.52           33.0          48.93
    0.8513              -48.33           12.8          21.65          40.74         -16.89           18.0         -97.73          54.59          61.48          33.03          48.93
    0.8806              -48.29           12.8          21.69          40.78         -16.89          17.96         -97.84          54.54          61.44          33.05          48.93
      0.91              -48.24          12.81          21.72          40.82          -16.9          17.91         -97.96          54.48          61.39          33.08          48.92
    0.9393              -48.18          12.82          21.77          40.87          -16.9          17.85         -98.11          54.41          61.34          33.12          48.92
    0.9687              -48.12          12.83          21.82          40.92         -16.91          17.78         -98.27          54.33          61.28          33.16          48.92
    0.9981              -48.04          12.84          21.88          40.99         -16.92           17.7         -98.47          54.23          61.21          33.21          48.91
     1.027              -47.95          12.85          21.96          41.07         -16.93           17.6          -98.7          54.12          61.12          33.27          48.91
     1.057              -47.85          12.86          22.04          41.16         -16.94          17.49         -98.97          53.99          61.02          33.34           48.9
     1.086              -47.72          12.88          22.15          41.27         -16.96          17.35         -99.29          53.83           60.9          33.42          48.89
     1.115              -47.57           12.9          22.27           41.4         -16.98          17.19         -99.69          53.63          60.75          33.52          48.88
     1.145              -47.38          12.93          22.42          41.56          -17.0          16.99         -100.2           53.4          60.57          33.65          48.87
     1.174              -47.15          12.96          22.61          41.76         -17.02          16.74         -100.8          53.11          60.35           33.8          48.85
     1.204              -46.86           13.0          22.85          42.01         -17.06          16.43         -101.5          52.74          60.07          33.99          48.83
     1.233               -46.5          13.06          23.14          42.33          -17.1          16.04         -102.4          52.29          59.72          34.23          48.81
     1.262              -46.04          13.12          23.52          42.73         -17.16          15.54         -103.6          51.71          59.27          34.53          48.78
     1.292              -45.45           13.2           24.0          43.24         -17.22          14.91         -105.2          50.96          58.71          34.92          48.74
     1.321              -44.69          13.31          24.62           43.9         -17.31           14.1         -107.1          50.01          57.98          35.41          48.69
      1.35              -43.73          13.45          25.41          44.74         -17.43          13.06         -109.6          48.79          57.04          36.05          48.62
      1.38              -42.51          13.62          26.41          45.79         -17.57          11.75         -112.7          47.25          55.87          36.85          48.54
     1.409              -41.03          13.83          27.62          47.08         -17.74          10.16         -116.6          45.38          54.44          37.82          48.44
     1.438              -39.31          14.08          29.02          48.57         -17.94           8.31         -121.0          43.21          52.79          38.95          48.33
     1.468              -37.45          14.34          30.54          50.18         -18.16          6.311         -125.8          40.87          50.99          40.17           48.2
     1.497              -35.59           14.6          32.06          51.79         -18.38          4.312         -130.6          38.52           49.2           41.4          48.08
     1.526              -33.88          14.85          33.46          53.28         -18.58          2.465         -135.0          36.35          47.54          42.52          47.96
     1.556               -32.4          15.06          34.67          54.57         -18.75         0.8725         -138.8          34.48          46.11           43.5          47.86
     1.585              -31.18          15.23          35.67          55.62         -18.89        -0.4346         -142.0          32.95          44.94           44.3          47.78
     1.615              -30.21          15.37          36.46          56.46         -19.01         -1.474         -144.5          31.73          44.01          44.93          47.72
     1.644              -29.46          15.47          37.08          57.12          -19.1         -2.288         -146.4          30.78          43.28          45.43          47.67
     1.673              -28.87          15.56          37.56          57.63         -19.17         -2.922         -147.9          30.03          42.71          45.82          47.63
     1.703              -28.41          15.62          37.93          58.03         -19.22         -3.418         -149.1          29.45          42.27          46.12           47.6
     1.732              -28.04          15.67          38.23          58.35         -19.26         -3.807         -150.1          28.99          41.92          46.36          47.57
     1.761              -27.76          15.72          38.47           58.6          -19.3         -4.117         -150.8          28.63          41.64          46.55          47.55
     1.791              -27.53          15.75          38.65           58.8         -19.32         -4.365         -151.4          28.34          41.42           46.7          47.54
      1.82              -27.34          15.77          38.81          58.96         -19.34         -4.566         -151.9           28.1          41.24          46.82          47.52
     1.849              -27.19           15.8          38.93          59.09         -19.36         -4.731         -152.3          27.91          41.09          46.92          47.51
     1.879              -27.06          15.81          39.04           59.2         -19.38         -4.867         -152.6          27.75          40.97          47.01          47.51
